<svg width="2501" height="326" viewBox="0 0 2501 326" fill="none" xmlns="http://www.w3.org/2000/svg">
<g clip-path="url(#clip0)">
<path d="M2136.31 129.362V325.809H2199.1V194.844H2428.74V325.809H2491.53V129.362H2136.31ZM2191.92 65.673H2434.12C2468.21 59.3939 2492.43 28.8951 2499.6 0.19043H2126.44C2133.62 28.8951 2158.73 58.4969 2191.92 65.673ZM1945.24 325.809C1976.64 312.354 1993.68 289.031 2000.86 262.121H1718.3V1.08745H1654.61V325.809H1945.24V325.809ZM1183.67 64.776H1407.93C1442.01 54.9088 1469.82 28.8951 1477 1.08745H1121.78V193.05H1412.41V260.327H1184.57C1148.69 270.194 1118.19 294.414 1102.94 325.809H1475.2V129.362H1184.57L1183.67 64.776ZM631.106 65.673H873.302C907.389 59.3939 932.506 28.8951 938.785 0.19043H564.727C571.903 28.8951 597.02 58.4969 631.106 65.673ZM631.106 193.947H873.302C907.389 187.668 932.506 157.169 938.785 128.465H564.727C571.903 157.169 597.02 186.771 631.106 193.947ZM631.106 325.809H873.302C907.389 319.53 932.506 289.031 938.785 260.327H564.727C571.903 289.031 597.02 319.53 631.106 325.809Z" fill="#5E5E5E"/>
<path d="M0.500031 1.08745C7.67621 29.7922 32.7928 58.4969 65.9826 65.673H168.243L173.625 67.4671V324.912H237.314V67.4671L242.696 65.673H344.956C379.043 56.7028 403.263 29.7922 410.439 1.08745V0.19043L0.500031 1.08745Z" fill="#5E5E5E"/>
</g>
<defs>
<clipPath id="clip0">
<rect width="2500" height="326" fill="white" transform="translate(0.5)"/>
</clipPath>
</defs>
</svg>
