<svg width="64" height="64" viewBox="0 0 64 64" fill="none" xmlns="http://www.w3.org/2000/svg">
<g clip-path="url(#clip0)">
<path d="M32.003 64L40.995 13.43C49.565 13.43 52.269 14.37 52.66 18.206C52.66 18.206 58.41 16.062 61.31 11.708C49.994 6.464 38.624 6.228 38.624 6.228L31.989 14.308L32.004 14.307L25.369 6.227C25.369 6.227 14 6.464 2.68401 11.707C5.58101 16.061 11.334 18.205 11.334 18.205C11.727 14.369 14.427 13.429 22.94 13.423L32.003 64ZM32 3.893C41.147 3.823 51.618 5.308 62.336 9.98C63.769 7.402 64.136 6.262 64.136 6.262C52.42 1.626 41.448 0.04 32 0C22.55 0.04 11.578 1.626 -0.136993 6.262C-0.136993 6.262 0.386007 7.666 1.66301 9.98C12.38 5.308 22.85 3.823 32 3.893Z" fill="#E82127"/>
</g>
<defs>
<clipPath id="clip0">
<rect width="64" height="64" fill="white"/>
</clipPath>
</defs>
</svg>
